# xmcd
#
# Track frame offsets: 
#        150
#        16430
#        29275
#        45441
#        59437
#        80010
#        94820
#        109445
#        124045
#        140358
#        166082
#        211343
#        248618
#
# Disc length: 3526 seconds
#
# Revision: 0
# Processed by: cddbd v1.5.2PL0 Copyright (c) Steve Scherf et al.
# Submitted via: ExactAudioCopy v1.0b3
#
DISCID=aa0dc40d
DTITLE=Demis Roussos - Demis Roussos
DYEAR=1978
DGENRE=Pop
TTITLE0=Feel Like I'll Never Feel This Way Again
TTITLE1=Lovin' Arms
TTITLE2=Life In The City
TTITLE3=I Just Don't Know What To Do With Myself
TTITLE4=I Just Live
TTITLE5=Hey Friend
TTITLE6=The Other Woman
TTITLE7=This Song
TTITLE8=That Once In A Lifetime
TTITLE9=L.O.V.E. Got A Hold Of Me
TTITLE10=L.O.V.E. Got A Hold Of Me (12'')
TTITLE11=I Just Live (12'')
TTITLE12=Esta Cancion
EXTD=
EXTT0=
EXTT1=
EXTT2=
EXTT3=
EXTT4=
EXTT5=
EXTT6=
EXTT7=
EXTT8=
EXTT9=
EXTT10=
EXTT11=
EXTT12=
PLAYORDER=
